<svg width="744" height="563" viewBox="0 0 744 563" fill="none" xmlns="http://www.w3.org/2000/svg">
<mask id="mask0_1649_1721" style="mask-type:luminance" maskUnits="userSpaceOnUse" x="0" y="0" width="744" height="563">
<path d="M743.21 0H0V562.73H743.21V0Z" fill="white"/>
</mask>
<g mask="url(#mask0_1649_1721)">
<path d="M0 339.98V305.01H100.71V499.79C100.71 507.49 102.82 513.49 107 517.8C111.2 522.11 117.03 524.26 124.49 524.26H181.85V559.23H122.74C103.86 559.23 89.06 553.94 78.33 543.32C67.6 532.71 62.25 518.21 62.25 499.78V339.98H0Z" fill="black"/>
<path d="M282 562.73C269.64 562.73 258.51 560.92 248.61 557.31C238.69 553.7 230.25 548.56 223.25 541.91C216.26 535.28 210.84 527.3 206.99 517.96C203.15 508.64 201.23 498.27 201.23 486.84V75.88C201.23 64.45 203.15 54.08 206.99 44.76C210.85 35.43 216.27 27.44 223.25 20.8C230.25 14.16 238.69 9.03 248.61 5.42C258.51 1.81 269.64 0 282 0C294.36 0 305.48 1.75 315.39 5.25C325.29 8.74 333.75 13.82 340.75 20.46C347.74 27.1 353.16 35.03 357 44.24C360.86 53.45 362.78 63.88 362.78 75.53V486.85C362.78 498.28 360.92 508.71 357.19 518.14C353.45 527.59 348.1 535.57 341.1 542.1C334.11 548.63 325.59 553.7 315.57 557.31C305.54 560.92 294.35 562.73 282 562.73ZM239.69 486.85C239.69 499.91 243.42 510.16 250.89 517.61C258.35 525.08 268.72 528.81 282.01 528.81C295.3 528.81 305.37 525.08 312.96 517.61C320.53 510.15 324.31 499.91 324.31 486.85V75.88C324.31 62.82 320.53 52.57 312.96 45.1C305.38 37.64 295.06 33.92 282.01 33.92C268.96 33.92 258.63 37.65 251.06 45.1C243.48 52.57 239.69 62.81 239.69 75.88V486.84V486.85Z" fill="#2BFFC8"/>
<path d="M472.02 562.73C459.66 562.73 448.53 560.98 438.63 557.48C428.71 553.98 420.27 548.97 413.27 542.44C406.28 535.92 400.91 528 397.19 518.66C393.45 509.34 391.58 498.97 391.58 487.54V438.58C391.58 427.17 393.44 416.8 397.19 407.46C400.9 398.14 406.28 390.21 413.27 383.68C420.27 377.15 428.71 372.14 438.63 368.64C448.53 365.14 459.66 363.39 472.02 363.39C482.98 363.39 493.05 364.91 502.27 367.94C511.48 370.97 519.57 375.4 526.57 381.23C533.56 387.06 539.33 394.05 543.87 402.2C548.42 410.37 551.4 419.57 552.79 429.83H514.33C512.69 420.04 508.03 412.12 500.33 406.05C492.65 399.99 483.2 396.96 472.01 396.96C458.72 396.96 448.35 400.63 440.89 407.97C433.42 415.31 429.69 425.51 429.69 438.56V487.52C429.69 500.58 433.42 510.71 440.89 517.94C448.35 525.17 458.72 528.78 472.01 528.78C483.19 528.78 492.64 525.81 500.33 519.86C508.03 513.91 512.69 506.04 514.33 496.25H552.79C549.52 516.77 540.72 532.97 526.38 544.86C512.05 556.76 493.92 562.7 472.01 562.7L472.02 562.73Z" fill="black"/>
<path d="M661.23 562.73C648.87 562.73 637.74 560.92 627.84 557.31C617.92 553.7 609.48 548.56 602.48 541.91C595.49 535.28 590.07 527.3 586.22 517.96C582.38 508.64 580.46 498.27 580.46 486.84V438.93C580.46 427.5 582.38 417.13 586.22 407.81C590.08 398.48 595.5 390.49 602.48 383.85C609.48 377.21 617.92 372.08 627.84 368.47C637.74 364.86 648.87 363.05 661.23 363.05C673.59 363.05 684.71 364.8 694.62 368.3C704.52 371.79 712.98 376.87 719.98 383.51C726.97 390.15 732.39 398.08 736.23 407.29C740.09 416.5 742.01 426.93 742.01 438.58V486.84C742.01 498.27 740.15 508.7 736.42 518.13C732.68 527.58 727.33 535.56 720.33 542.09C713.34 548.62 704.82 553.69 694.8 557.3C684.77 560.91 673.58 562.72 661.23 562.72V562.73ZM618.91 486.85C618.91 499.91 622.64 510.16 630.11 517.61C637.57 525.08 647.94 528.81 661.23 528.81C674.52 528.81 684.59 525.08 692.18 517.61C699.75 510.15 703.53 499.91 703.53 486.85V438.94C703.53 425.88 699.75 415.63 692.18 408.16C684.6 400.7 674.28 396.98 661.23 396.98C648.18 396.98 637.85 400.71 630.28 408.16C622.7 415.63 618.91 425.87 618.91 438.94V486.85Z" fill="black"/>
<path d="M395.18 234.95H743.21V269.92H395.18V234.95Z" fill="black"/>
<path d="M0.75 234.97H69.99V112.23H9.5V77.6104H107.41V234.97H163.71V269.94H0.75V234.97ZM56 24.8204C56 18.0604 58.16 12.6404 62.47 8.56043C66.78 4.49043 72.54 2.44043 79.77 2.44043H88.16C95.39 2.44043 101.15 4.49043 105.48 8.56043C109.79 12.6404 111.94 18.0604 111.94 24.8204C111.94 31.5804 109.79 36.9404 105.48 40.9104C101.15 44.8804 95.28 46.8604 87.82 46.8604H79.77C72.54 46.8604 66.78 44.8804 62.47 40.9104C58.16 36.9404 56 31.5904 56 24.8204Z" fill="black"/>
</g>
</svg>
